<svg width="200" height="200" viewbox="0 0 200 200" fill="none" xmlns="http://www.w3.org/2000/svg"><g clip-path="url(#clip0)"><path d="M0 200V0h200v200H0z" fill="#FFD300"/><path opacity=".4" d="M0-.007h200v200H0v-200z" fill="url(#paint0_linear)"/><path opacity=".4" d="M209.716-3.485L152.318 200H0V36.174l209.716-39.66z" fill="url(#paint1_linear)"/><path opacity=".4" d="M209.716-3.485L39.738 200h74.564L209.716-3.485z" fill="url(#paint2_linear)"/><path opacity=".4" d="M209.716-3.485L0 127.2V200h65.272L209.716-3.485z" fill="url(#paint3_linear)"/><path d="M151.951 42.976l-51.055 110.831V43.033H71.77l-52.014 112.89h25.181l9.879-21.4h24.313v21.4h45.968l9.878-21.4h24.321v21.4h21.767V43.033l-29.112-.057zm-72.765 68.878H65.293l13.893-30.072v30.072zm80.18 0h-13.885l13.885-30.072v30.072z" fill="#1D1D1B"/></g><defs><linearGradient id="paint0_linear" x1="179.894" y1="-4.504" x2="61.519" y2="150.129" gradientUnits="userSpaceOnUse"><stop stop-color="#fff"/><stop offset="1" stop-color="#FFD300" stop-opacity="0"/></linearGradient><linearGradient id="paint1_linear" x1="-18548.7" y1="-137900" x2="-62704.5" y2="-88115.5" gradientUnits="userSpaceOnUse"><stop stop-color="#fff"/><stop offset="1" stop-color="#FFD300" stop-opacity="0"/></linearGradient><linearGradient id="paint2_linear" x1="171.791" y1="3.803" x2="83.066" y2="187.483" gradientUnits="userSpaceOnUse"><stop stop-color="#fff"/><stop offset=".12" stop-color="#FFFEFB" stop-opacity=".98"/><stop offset=".24" stop-color="#FFFCEE" stop-opacity=".93"/><stop offset=".37" stop-color="#FFF8D8" stop-opacity=".85"/><stop offset=".5" stop-color="#FFF3BA" stop-opacity=".73"/><stop offset=".63" stop-color="#FFEC94" stop-opacity=".58"/><stop offset=".77" stop-color="#FFE464" stop-opacity=".39"/><stop offset=".9" stop-color="#FFDB2D" stop-opacity=".18"/><stop offset="1" stop-color="#FFD300" stop-opacity="0"/></linearGradient><linearGradient id="paint3_linear" x1="189.663" y1="-12.75" x2="28.018" y2="168.793" gradientUnits="userSpaceOnUse"><stop stop-color="#fff"/><stop offset=".1" stop-color="#FFFEFA" stop-opacity=".98"/><stop offset=".22" stop-color="#FFFBEA" stop-opacity=".92"/><stop offset=".36" stop-color="#FFF7D1" stop-opacity=".82"/><stop offset=".51" stop-color="#FFF1AE" stop-opacity=".68"/><stop offset=".66" stop-color="#FFE980" stop-opacity=".5"/><stop offset=".82" stop-color="#FFE049" stop-opacity=".29"/><stop offset=".98" stop-color="#FFD409" stop-opacity=".03"/><stop offset="1" stop-color="#FFD300" stop-opacity="0"/></linearGradient><clipPath id="clip0"><path fill="#fff" d="M0 0h200v200H0z"/></clipPath></defs></svg>